# Blender 5.1.2
# www.blender.org
mtllib bladetrap.mtl
o blade_trap
v 8.000000 1.577256 11.912482
v 8.100215 1.577256 11.970341
v 8.100215 1.577256 12.086059
v 8.000000 1.577256 12.143918
v 7.899786 1.577256 12.086059
v 7.899786 1.577256 11.970341
v 7.982249 1.167170 11.948569
v 8.077838 1.195478 12.003758
v 7.982249 1.195478 12.107831
v 7.939913 1.195478 11.973012
v 8.077838 1.138862 12.003758
v 8.077838 1.167170 12.052643
v 7.982249 1.138862 12.107831
v 7.939913 1.167170 12.083388
v 7.939913 1.138862 11.973012
v 8.000000 1.072535 11.912482
v 7.899786 1.261805 11.970342
v 8.000000 1.261805 11.912482
v 7.899786 1.261805 12.086059
v 8.000000 1.261805 12.143918
v 8.100215 1.261805 12.086060
v 8.100215 1.261805 11.970342
v 8.100215 1.072535 11.970342
v 8.100215 1.072535 12.086060
v 8.000000 1.072535 12.143918
v 7.899786 1.072535 12.086060
v 7.899786 1.072535 11.970342
v 8.100215 0.022557 11.970342
v 8.100215 0.022557 12.086060
v 8.000000 0.022557 12.143918
v 7.899786 0.022557 12.086060
v 7.899786 0.022557 11.970342
v 8.000000 0.022557 11.912482
v 8.000000 1.072535 11.938321
v 8.000000 1.261805 11.938321
v 8.077838 1.261805 11.983260
v 8.077838 1.072535 11.983260
v 8.077838 1.261805 12.073140
v 8.077838 1.072535 12.073140
v 8.000000 1.261805 12.118079
v 8.000000 1.072535 12.118079
v 7.922162 1.261805 12.073140
v 7.922162 1.072535 12.073140
v 7.922162 1.261805 11.983260
v 7.922162 1.072535 11.983260
v 7.737199 1.167170 11.477072
v 8.608691 1.195478 11.980227
v 8.608691 1.138862 11.980227
v 8.608691 1.167170 12.076172
v 7.737199 1.195478 12.579328
v 7.737199 1.138862 12.579328
v 7.654109 1.167170 12.531356
v 7.654109 1.195478 11.525044
v 7.654109 1.138861 11.525044
v 7.416600 1.167170 11.332932
v 8.893820 1.167170 11.870596
v 7.689579 1.167170 12.881073
vn 0.3153 -0.9314 -0.1820
vn -0.3153 0.9314 -0.1820
vn -0.3401 0.9398 0.0345
vn -0.0443 -0.0000 -0.9990
vn -0.0000 0.9314 0.3641
vn -0.8430 -0.0000 0.5379
vn -0.0000 -0.9314 0.3641
vn 0.3153 0.9314 -0.1820
vn 0.8873 -0.0000 0.4612
vn -0.3153 -0.9314 -0.1820
vn 0.1402 -0.9398 -0.3118
vn -0.3589 -0.0000 -0.9334
vn 0.1999 0.9398 0.2773
vn -0.6289 -0.0000 0.7775
vn 0.1999 -0.9398 0.2773
vn 0.1402 0.9398 -0.3118
vn 0.9878 -0.0000 0.1559
vn -0.3401 -0.9398 0.0345
vn 0.5000 -0.0000 -0.8660
vn 1.0000 -0.0000 -0.0000
vn 0.5000 -0.0000 0.8660
vn -0.5000 -0.0000 0.8660
vn -0.0000 1.0000 -0.0000
vn -1.0000 -0.0000 -0.0000
vn -0.5000 -0.0000 -0.8660
vn -0.0000 -1.0000 -0.0000
vt 0.038009 0.852753
vt 0.128657 0.852753
vt 0.461991 0.887247
vt 0.371343 0.887247
vt 0.795324 0.852753
vt 0.795324 0.887247
vt 0.704676 0.887247
vt 0.128657 0.887247
vt 0.704676 0.852753
vt 0.038009 0.887247
vt 0.461991 0.852753
vt 0.371342 0.852753
vt 1.000000 0.900000
vt 1.000000 1.000000
vt 0.833333 1.000000
vt 0.833333 0.900000
vt 0.666667 1.000000
vt 0.666667 0.900000
vt 0.500000 1.000000
vt 0.500000 0.900000
vt 0.333333 1.000000
vt 0.333333 0.900000
vt 0.457846 0.370000
vt 0.250000 0.490000
vt 0.042154 0.370000
vt 0.042154 0.130000
vt 0.250000 0.010000
vt 0.457846 0.130000
vt 0.166667 1.000000
vt 0.166667 0.900000
vt -0.000000 1.000000
vt -0.000000 0.900000
vt 0.333333 0.840000
vt 0.166667 0.840000
vt 0.666667 0.840000
vt 0.500000 0.840000
vt 1.000000 0.840000
vt 0.833333 0.840000
vt 1.000000 0.585000
vt 0.833333 0.585000
vt 0.666667 0.585000
vt 0.500000 0.585000
vt 0.333333 0.585000
vt 0.166667 0.585000
vt -0.000000 0.840000
vt -0.000000 0.585000
s 1
usemtl light_grey
f 7/1/1 15/2/1 54/2/1 46/1/1
f 9/3/2 14/4/2 52/4/2 50/3/2
f 50/3/3 52/4/3 57/3/3
f 11/5/4 8/6/4 47/6/4 48/5/4
f 8/6/5 12/7/5 49/7/5 47/6/5
f 15/2/6 10/8/6 53/8/6 54/2/6
f 12/9/7 11/5/7 48/5/7 49/9/7
f 10/8/8 7/10/8 46/10/8 53/8/8
f 13/11/9 9/3/9 50/3/9 51/11/9
f 14/12/10 13/11/10 51/11/10 52/12/10
f 46/1/11 54/2/11 55/1/11
f 48/5/12 47/6/12 56/5/12
f 47/6/13 49/7/13 56/6/13
f 54/2/14 53/8/14 55/2/14
f 49/9/15 48/5/15 56/9/15
f 53/8/16 46/10/16 55/8/16
f 51/11/17 50/3/17 57/11/17
f 52/12/18 51/11/18 57/12/18
usemtl dark_brown
f 18/13/19 1/14/19 2/15/19 22/16/19
f 22/16/20 2/15/20 3/17/20 21/18/20
f 21/18/21 3/17/21 4/19/21 20/20/21
f 20/20/22 4/19/22 5/21/22 19/22/22
f 2/23/23 1/24/23 6/25/23 5/26/23 4/27/23 3/28/23
f 19/22/24 5/21/24 6/29/24 17/30/24
f 17/30/25 6/29/25 1/31/25 18/32/25
f 43/33/24 42/22/24 44/30/24 45/34/24
f 39/35/21 38/18/21 40/20/21 41/36/21
f 34/37/19 35/13/19 36/16/19 37/38/19
f 33/39/19 16/37/19 23/38/19 28/40/19
f 28/40/20 23/38/20 24/35/20 29/41/20
f 29/41/21 24/35/21 25/36/21 30/42/21
f 30/42/22 25/36/22 26/33/22 31/43/22
f 31/43/24 26/33/24 27/34/24 32/44/24
f 32/44/25 27/34/25 16/45/25 33/46/25
f 35/32/26 44/30/26 17/30/26 18/32/26
f 44/30/26 42/22/26 19/22/26 17/30/26
f 42/22/26 40/20/26 20/20/26 19/22/26
f 40/20/26 38/18/26 21/18/26 20/20/26
f 38/18/26 36/16/26 22/16/26 21/18/26
f 36/16/26 35/13/26 18/13/26 22/16/26
f 34/37/23 37/38/23 23/38/23 16/37/23
f 37/38/23 39/35/23 24/35/23 23/38/23
f 39/35/23 41/36/23 25/36/23 24/35/23
f 41/36/23 43/33/23 26/33/23 25/36/23
f 43/33/23 45/34/23 27/34/23 26/33/23
f 45/34/23 34/45/23 16/45/23 27/34/23
f 7/10/25 35/32/25 34/45/25
f 8/6/20 11/5/20 37/38/20 36/16/20
f 12/7/20 38/18/20 39/35/20
f 9/3/22 13/11/22 41/36/22 40/20/22
f 14/4/22 42/22/22 43/33/22
f 10/8/25 15/2/25 45/34/25 44/30/25
f 7/10/25 10/8/25 44/30/25 35/32/25
f 14/4/22 9/3/22 40/20/22 42/22/22
f 12/7/20 8/6/20 36/16/20 38/18/20
f 11/5/20 12/9/20 39/35/20 37/38/20
f 13/11/22 14/12/22 43/33/22 41/36/22
f 15/2/25 7/1/25 34/45/25 45/34/25
o blade_trap_base
v 8.000000 0.000001 11.801085
v 8.196689 0.000001 11.914642
v 8.196689 0.000001 12.141758
v 8.000000 0.000001 12.255317
v 7.803312 0.000001 12.141758
v 7.803312 0.000001 11.914642
v 8.000000 -0.006643 11.682419
v 8.299456 -0.006643 11.855309
v 7.803312 0.201986 11.914642
v 8.299456 -0.006643 12.201091
v 7.803312 0.201986 12.141758
v 8.000000 -0.006643 12.373981
v 8.000000 0.201986 12.255316
v 7.700544 -0.006643 12.201091
v 8.196689 0.201986 12.141758
v 7.700544 -0.006643 11.855309
v 8.196689 0.201986 11.914642
v 8.000000 0.201986 11.801085
v 8.299456 0.195342 12.201091
v 8.299456 0.195342 11.855309
v 8.000000 0.195342 11.682419
v 8.000000 0.195342 12.373981
v 7.700544 0.195342 12.201091
v 7.700544 0.195342 11.855309
vn -0.0000 1.0000 -0.0000
vn 0.5000 -0.0000 -0.8660
vn -1.0000 -0.0000 -0.0000
vn 0.5000 -0.0000 0.8660
vn -0.5000 -0.0000 -0.8660
vn 0.0323 0.9979 0.0559
vn 0.0323 0.9979 -0.0559
vn -0.0323 0.9979 0.0559
vn -0.0645 0.9979 -0.0000
vn 0.0645 0.9979 -0.0000
vn -0.0323 0.9979 -0.0559
vn -0.5000 -0.0000 0.8660
vn 1.0000 -0.0000 -0.0000
vt 0.750000 0.490000
vt 0.542154 0.370000
vt 0.542154 0.130000
vt 0.750000 0.010000
vt 0.957846 0.130000
vt 0.957846 0.370000
vt 0.000000 0.000000
s 1
usemtl dark_grey
f 58/47/27 63/48/27 62/49/27 61/50/27 60/51/27 59/52/27
f 62/49/28 68/49/28 70/50/28 61/50/28
f 71/53/29 80/53/29 81/53/29 73/53/29
f 60/51/29 72/51/29 74/52/29 59/52/29
f 67/53/30 76/53/30 79/53/30 69/53/30
f 61/50/31 70/50/31 72/51/31 60/51/31
f 73/53/31 81/53/31 78/53/31 64/53/31
f 70/50/32 79/50/32 76/51/32 72/51/32
f 74/52/33 77/52/33 78/47/33 75/47/33
f 68/49/34 80/49/34 79/50/34 70/50/34
f 66/48/35 81/48/35 80/49/35 68/49/35
f 72/51/36 76/51/36 77/52/36 74/52/36
f 75/47/37 78/47/37 81/48/37 66/48/37
f 59/52/38 74/52/38 75/47/38 58/47/38
f 63/48/39 66/48/39 68/49/39 62/49/39
f 58/47/30 75/47/30 66/48/30 63/48/30
f 69/53/38 79/53/38 80/53/38 71/53/38
f 64/53/28 78/53/28 77/53/28 65/53/28
f 65/53/39 77/53/39 76/53/39 67/53/39
