# Blender 5.1.2
# www.blender.org
mtllib candle.mtl
o candle.003
v -13.498727 0.000001 11.993487
v -13.498727 0.343140 12.054667
v -13.443769 0.000001 12.025217
v -13.496753 0.343140 12.055807
v -13.443769 0.000001 12.088677
v -13.496753 0.343140 12.058087
v -13.498727 0.000001 12.120408
v -13.498727 0.343140 12.059228
v -13.553685 0.000001 12.088677
v -13.500702 0.343140 12.058087
v -13.553685 0.000001 12.025217
v -13.500702 0.343140 12.055807
v -13.443769 0.343140 12.025217
v -13.498727 0.343140 11.993487
v -13.443769 0.343140 12.088677
v -13.498727 0.343140 12.120408
v -13.553685 0.343140 12.088677
v -13.553685 0.343140 12.025217
v -13.498729 0.381424 12.054484
v -13.496595 0.381424 12.055716
v -13.496595 0.381424 12.058180
v -13.498729 0.381424 12.059411
v -13.500862 0.381424 12.058180
v -13.500862 0.381424 12.055716
vn 0.5000 -0.0041 0.8660
vn -0.0000 1.0000 -0.0000
vn 0.5000 -0.0041 -0.8660
vn -0.5001 -0.0042 -0.8659
vn -0.4999 -0.0042 0.8661
vn 1.0000 -0.0041 -0.0000
vn -1.0000 -0.0042 -0.0000
vn 0.5000 -0.0000 -0.8660
vn 1.0000 -0.0000 -0.0000
vn 0.5000 -0.0000 0.8660
vn -0.5000 -0.0000 0.8660
vn -1.0000 -0.0000 -0.0000
vn -0.5000 -0.0000 -0.8660
vn -0.0000 -1.0000 -0.0000
vt 0.250000 0.147298
vt 0.338942 0.198649
vt 0.338942 0.301351
vt 0.250000 0.352702
vt 0.161058 0.301351
vt 0.161058 0.198649
vt 1.000000 0.500000
vt 1.000000 1.000000
vt 0.833333 1.000000
vt 0.833333 0.500000
vt 0.666667 1.000000
vt 0.666667 0.500000
vt 0.500000 1.000000
vt 0.500000 0.500000
vt 0.333333 1.000000
vt 0.333333 0.500000
vt 0.166667 1.000000
vt 0.166667 0.500000
vt -0.000000 1.000000
vt -0.000000 0.500000
vt 0.750000 0.490000
vt 0.957846 0.370000
vt 0.957846 0.130000
vt 0.750000 0.010000
vt 0.542154 0.130000
vt 0.542154 0.370000
vt 0.457846 0.370000
vt 0.250000 0.490000
vt 0.457846 0.130000
vt 0.250000 0.010000
vt 0.042154 0.130000
vt 0.042154 0.370000
s 1
usemtl black
f 8/1/1 6/2/1 21/2/1 22/1/1
f 20/3/2 19/4/2 24/5/2 23/6/2 22/1/2 21/2/2
f 4/3/3 2/4/3 19/4/3 20/3/3
f 2/4/4 12/5/4 24/5/4 19/4/4
f 10/6/5 8/1/5 22/1/5 23/6/5
f 6/2/6 4/3/6 20/3/6 21/2/6
f 12/5/7 10/6/7 23/6/7 24/5/7
usemtl beige
f 1/7/8 14/8/8 13/9/8 3/10/8
f 3/10/9 13/9/9 15/11/9 5/12/9
f 5/12/10 15/11/10 16/13/10 7/14/10
f 7/14/11 16/13/11 17/15/11 9/16/11
f 9/16/12 17/15/12 18/17/12 11/18/12
f 11/18/13 18/17/13 14/19/13 1/20/13
f 1/21/14 3/22/14 5/23/14 7/24/14 9/25/14 11/26/14
f 2/4/2 4/3/2 13/27/2 14/28/2
f 4/3/2 6/2/2 15/29/2 13/27/2
f 6/2/2 8/1/2 16/30/2 15/29/2
f 8/1/2 10/6/2 17/31/2 16/30/2
f 10/6/2 12/5/2 18/32/2 17/31/2
f 12/5/2 2/4/2 14/28/2 18/32/2
