# Blender 5.1.2
# www.blender.org
mtllib floor.mtl
o floor.001
v -15.390932 0.200000 4.025233
v -14.393396 0.200000 4.025233
v -14.393396 0.200000 3.027698
v -15.390932 0.200000 3.027698
v -15.358082 0.244380 3.060548
v -15.358082 0.244380 3.992383
v -14.426247 0.244380 3.992383
v -14.426247 0.244380 3.060548
v -14.365698 0.200000 3.000000
v -15.418629 0.200000 3.000000
v -14.365698 0.200000 4.052931
v -15.418629 0.200000 4.052931
v -14.337673 0.200000 5.078492
v -13.340137 0.200000 5.078492
v -13.340137 0.200000 4.080956
v -14.337673 0.200000 4.080956
v -14.304823 0.244380 4.113807
v -14.304823 0.244380 5.045641
v -13.372988 0.244380 5.045641
v -13.372988 0.244380 4.113807
v -13.312439 0.200000 4.053258
v -14.365370 0.200000 4.053258
v -13.312439 0.200000 5.106189
v -14.365370 0.200000 5.106189
v -13.312439 0.200000 4.052932
v -14.365370 0.200000 4.052932
v -13.312439 0.200000 3.000000
v -14.365370 0.200000 3.000000
v -14.337671 0.200000 4.025234
v -13.340136 0.200000 4.025234
v -13.340136 0.200000 3.027698
v -14.337671 0.200000 3.027698
v -14.304821 0.244380 3.060549
v -14.304821 0.244380 3.992384
v -13.372986 0.244380 3.992384
v -13.372986 0.244380 3.060549
v -14.365698 0.200000 5.106190
v -15.418629 0.200000 5.106190
v -14.365698 0.200000 4.053258
v -15.418629 0.200000 4.053258
v -15.390931 0.200000 5.078492
v -14.393395 0.200000 5.078492
v -14.393395 0.200000 4.080956
v -15.390931 0.200000 4.080956
v -15.358081 0.244380 4.113806
v -15.358081 0.244380 5.045642
v -14.426246 0.244380 5.045642
v -14.426246 0.244380 4.113806
v -14.365698 0.000000 3.000000
v -15.418629 0.000000 3.000000
v -13.312439 0.000000 5.106189
v -13.312439 0.000000 4.053258
v -13.312439 0.000000 3.000000
v -15.418629 0.000000 5.106190
v -14.365698 0.000000 5.106190
v -14.365698 0.000000 4.053258
v -15.418629 0.000000 4.053258
vn -0.0000 1.0000 -0.0000
vn 0.8038 0.5949 -0.0000
vn -0.0000 0.5949 -0.8038
vn -0.0000 0.5949 0.8038
vn -0.8038 0.5949 -0.0000
vn -0.0000 0.5950 -0.8038
vn -0.0000 0.5950 0.8038
vn -0.8038 0.5950 -0.0000
vn -0.0000 -1.0000 -0.0000
vn -0.0000 0.0016 1.0000
vn -1.0000 0.0016 -0.0000
vn -0.0000 -0.0000 1.0000
vn 1.0000 -0.0000 -0.0000
vn -0.0000 -0.0000 -1.0000
vn -1.0000 -0.0000 -0.0000
vt 0.061981 0.207667
vt 0.000000 0.000000
s 1
usemtl dark_grey
f 6/1/1 7/1/1 8/1/1 5/1/1
f 2/1/2 3/1/2 8/1/2 7/1/2
f 3/1/3 4/1/3 5/1/3 8/1/3
f 1/1/4 2/1/4 7/1/4 6/1/4
f 4/1/5 1/1/5 6/1/5 5/1/5
f 18/1/1 19/1/1 20/1/1 17/1/1
f 14/1/2 15/1/2 20/1/2 19/1/2
f 15/1/6 16/1/6 17/1/6 20/1/6
f 13/1/7 14/1/7 19/1/7 18/1/7
f 16/1/8 13/1/8 18/1/8 17/1/8
usemtl grey
f 12/2/1 11/2/1 9/2/1 10/2/1
f 24/2/1 23/2/1 21/2/1 22/2/1
f 26/2/1 25/2/1 27/2/1 28/2/1
f 34/1/1 35/1/1 36/1/1 33/1/1
f 30/1/2 31/1/2 36/1/2 35/1/2
f 31/1/6 32/1/6 33/1/6 36/1/6
f 29/1/4 30/1/4 35/1/4 34/1/4
f 32/1/8 29/1/8 34/1/8 33/1/8
f 38/2/1 37/2/1 39/2/1 40/2/1
f 46/1/1 47/1/1 48/1/1 45/1/1
f 42/1/2 43/1/2 48/1/2 47/1/2
f 43/1/3 44/1/3 45/1/3 48/1/3
f 41/1/4 42/1/4 47/1/4 46/1/4
f 44/1/8 41/1/8 46/1/8 45/1/8
f 57/2/9 50/2/9 49/2/9 56/2/9
f 55/2/9 56/2/9 52/2/9 51/2/9
f 56/2/9 49/2/9 53/2/9 52/2/9
f 54/2/9 57/2/9 56/2/9 55/2/9
f 12/2/10 57/2/10 56/2/10 11/2/10
f 22/2/11 56/2/11 55/2/11 24/2/11
f 24/2/12 55/2/12 51/2/12 23/2/12
f 26/2/10 56/2/10 52/2/10 25/2/10
f 25/2/13 52/2/13 53/2/13 27/2/13
f 38/2/12 54/2/12 55/2/12 37/2/12
f 28/2/11 49/2/11 56/2/11 26/2/11
f 37/2/13 55/2/13 56/2/13 39/2/13
f 11/2/13 56/2/13 49/2/13 9/2/13
f 27/2/14 53/2/14 49/2/14 28/2/14
f 40/2/15 57/2/15 54/2/15 38/2/15
f 9/2/14 49/2/14 50/2/14 10/2/14
f 23/2/13 51/2/13 52/2/13 21/2/13
f 39/2/14 56/2/14 57/2/14 40/2/14
f 10/2/15 50/2/15 57/2/15 12/2/15
f 21/2/14 52/2/14 56/2/14 22/2/14
