# Blender 5.1.2
# www.blender.org
mtllib skull.mtl
o skull
v -19.326807 0.049463 11.974483
v -19.334591 0.369131 11.975675
v -19.322363 0.138138 11.630000
v -19.334591 0.399536 11.628940
v -19.473276 0.109765 11.606176
v -19.473276 0.439400 11.589074
v -19.312380 0.244361 11.612303
v -19.295980 0.049463 11.782354
v -19.304201 0.435600 11.805158
v -19.281397 0.187213 12.004138
v -19.473276 0.049463 12.004138
v -19.473276 0.408996 12.015539
v -19.473276 0.192032 11.542515
v -19.250368 0.226487 11.785960
v -19.473276 0.187213 12.087798
v -19.473276 0.049463 11.839019
v -19.473276 0.519260 11.805158
v -19.311394 0.049463 11.878419
v -19.400042 0.049463 11.989310
v -19.384628 0.049463 11.810687
v -19.473276 0.049463 11.921578
v -19.392334 0.049463 11.899999
v -19.382730 0.049463 11.926377
v -19.324032 0.049463 11.910728
v -19.335814 0.049463 11.965837
v -19.388638 0.049463 11.976531
v -19.463013 0.049463 11.950630
v -19.403816 0.049463 11.934848
v -19.409605 0.049463 11.980776
v -19.463013 0.049463 11.991590
v -19.463013 0.000908 11.950630
v -19.463013 0.000908 11.991590
v -19.322918 -0.007620 11.908171
v -19.381617 -0.007620 11.923820
v -19.387524 -0.007620 11.973974
v -19.334700 -0.007620 11.963279
v -19.403816 0.000908 11.934848
v -19.409605 0.000908 11.980776
v -19.320126 0.217206 12.010922
v -19.353712 0.333880 11.993779
v -19.444033 0.281651 12.045056
v -19.443823 0.217625 12.066482
v -19.473276 0.178548 11.933346
v -19.473276 0.242574 11.911921
v -19.410711 0.294803 11.860643
v -19.377125 0.178129 11.877787
v -19.473276 0.159462 12.075331
v -19.454653 0.158616 12.066831
v -19.473276 0.166943 12.058680
v -19.473276 0.194694 12.071147
v -19.461912 0.166096 12.050179
v -19.357647 0.049463 11.830894
v -19.312010 0.049463 11.811548
v -19.322783 0.049463 11.868131
v -19.363039 0.049463 11.882833
v -19.312010 -0.001125 11.811548
v -19.357647 -0.001125 11.830894
v -19.363039 -0.001125 11.882833
v -19.322783 -0.001125 11.868131
v -19.619745 0.049463 11.974483
v -19.611961 0.369131 11.975675
v -19.624189 0.138138 11.630000
v -19.611961 0.399536 11.628940
v -19.634172 0.244361 11.612303
v -19.650572 0.049463 11.782354
v -19.642351 0.435600 11.805158
v -19.665155 0.187213 12.004138
v -19.696184 0.226487 11.785960
v -19.635159 0.049463 11.878419
v -19.546511 0.049463 11.989310
v -19.561924 0.049463 11.810687
v -19.554218 0.049463 11.899999
v -19.563822 0.049463 11.926377
v -19.622520 0.049463 11.910728
v -19.610739 0.049463 11.965837
v -19.557915 0.049463 11.976531
v -19.483540 0.049463 11.950630
v -19.542736 0.049463 11.934848
v -19.536947 0.049463 11.980776
v -19.483540 0.049463 11.991590
v -19.483540 0.000908 11.950630
v -19.483540 0.000908 11.991590
v -19.623634 -0.007620 11.908171
v -19.564936 -0.007620 11.923820
v -19.559029 -0.007620 11.973974
v -19.611853 -0.007620 11.963279
v -19.542736 0.000908 11.934848
v -19.536947 0.000908 11.980776
v -19.626427 0.217206 12.010922
v -19.592840 0.333880 11.993779
v -19.502520 0.281651 12.045056
v -19.502729 0.217625 12.066482
v -19.535841 0.294803 11.860643
v -19.569427 0.178129 11.877787
v -19.491899 0.158616 12.066831
v -19.484640 0.166096 12.050179
v -19.588905 0.049463 11.830894
v -19.634542 0.049463 11.811548
v -19.623770 0.049463 11.868131
v -19.583513 0.049463 11.882833
v -19.634542 -0.001125 11.811548
v -19.588905 -0.001125 11.830894
v -19.583513 -0.001125 11.882833
v -19.623770 -0.001125 11.868131
vn 0.3330 0.1641 -0.9285
vn 0.3555 -0.3862 -0.8512
vn 0.9278 -0.1978 -0.3162
vn 0.9399 0.2217 -0.2597
vn 0.9396 0.2624 0.2198
vn 0.9508 -0.2872 0.1159
vn 0.2999 -0.4034 0.8645
vn 0.9783 -0.0643 -0.1968
vn 0.0441 -0.9307 -0.3630
vn -0.9930 -0.0141 -0.1170
vn 0.3886 0.8750 -0.2887
vn 0.3848 0.8252 0.4136
vn 0.1983 -0.0400 0.9793
vn -0.0000 -1.0000 -0.0000
vn 0.9824 -0.0000 0.1870
vn 0.1984 -0.0000 0.9801
vn -1.0000 -0.0000 -0.0000
vn -0.2576 -0.0000 -0.9663
vn 0.9779 0.0097 0.2091
vn -0.2574 0.0382 -0.9655
vn 0.9922 -0.0000 0.1251
vn 0.3646 0.2432 0.8988
vn 0.3413 0.2837 0.8961
vn 0.3569 0.2912 0.8876
vn 0.3888 0.2715 0.8804
vn 0.4765 0.2673 0.8375
vn -0.1195 0.9625 -0.2437
vn 0.5852 -0.8094 0.0480
vn -0.8811 -0.1900 0.4330
vn 0.5460 -0.3433 0.7642
vn -0.8891 -0.4576 -0.0117
vn 0.2499 0.9024 0.3509
vn -0.3903 -0.0000 -0.9207
vn 0.3430 -0.0000 0.9393
vn -0.9947 -0.0000 -0.1033
vn -0.3330 0.1641 -0.9285
vn -0.3555 -0.3862 -0.8512
vn -0.9278 -0.1978 -0.3162
vn -0.9399 0.2218 -0.2597
vn -0.9396 0.2624 0.2198
vn -0.9508 -0.2872 0.1159
vn -0.2999 -0.4035 0.8645
vn -0.9783 -0.0643 -0.1968
vn -0.0441 -0.9307 -0.3630
vn 0.9930 -0.0141 -0.1170
vn -0.3886 0.8750 -0.2887
vn -0.3848 0.8252 0.4136
vn -0.1983 -0.0400 0.9793
vn -0.9824 -0.0000 0.1870
vn -0.1984 -0.0000 0.9801
vn 1.0000 -0.0000 -0.0000
vn 0.2576 -0.0000 -0.9663
vn -0.9779 0.0097 0.2091
vn 0.2574 0.0383 -0.9655
vn -0.9922 -0.0000 0.1251
vn -0.3646 0.2432 0.8988
vn -0.3413 0.2837 0.8961
vn -0.3569 0.2912 0.8876
vn -0.3888 0.2715 0.8804
vn -0.4765 0.2673 0.8375
vn 0.1195 0.9625 -0.2437
vn -0.5852 -0.8094 0.0480
vn 0.8811 -0.1900 0.4330
vn -0.5460 -0.3433 0.7642
vn 0.8891 -0.4576 -0.0117
vn -0.2499 0.9024 0.3509
vn 0.3903 -0.0000 -0.9207
vn -0.3430 -0.0000 0.9393
vn 0.9947 -0.0000 -0.1033
vt 0.066902 0.192902
s 1
usemtl beige
f 13/1/1 6/1/1 4/1/1 7/1/1
f 5/1/2 13/1/2 7/1/2 3/1/2
f 3/1/3 7/1/3 14/1/3 8/1/3
f 7/1/4 4/1/4 9/1/4 14/1/4
f 14/1/5 9/1/5 2/1/5 10/1/5
f 8/1/6 14/1/6 10/1/6 1/1/6 18/1/6
f 1/1/7 10/1/7 15/1/7 48/1/7 47/1/7 11/1/7 19/1/7
f 41/1/8 42/1/8 43/1/8 44/1/8
f 5/1/9 3/1/9 8/1/9 20/1/9 16/1/9
f 26/1/10 23/1/10 34/1/10 35/1/10
f 4/1/11 6/1/11 17/1/11 9/1/11
f 9/1/12 17/1/12 12/1/12 2/1/12
f 25/1/13 26/1/13 35/1/13 36/1/13
f 16/1/14 20/1/14 22/1/14 21/1/14
f 53/1/15 54/1/15 59/1/15 56/1/15
f 22/1/14 18/1/14 24/1/14 23/1/14
f 18/1/14 1/1/14 25/1/14 24/1/14
f 1/1/14 19/1/14 26/1/14 25/1/14
f 19/1/14 22/1/14 23/1/14 26/1/14
f 21/1/14 22/1/14 28/1/14 27/1/14
f 22/1/14 19/1/14 29/1/14 28/1/14
f 19/1/14 11/1/14 30/1/14 29/1/14
f 11/1/14 21/1/14 27/1/14 30/1/14
f 34/1/14 33/1/14 36/1/14 35/1/14
f 31/1/14 37/1/14 38/1/14 32/1/14
f 29/1/16 30/1/16 32/1/16 38/1/16
f 30/1/17 27/1/17 31/1/17 32/1/17
f 27/1/18 28/1/18 37/1/18 31/1/18
f 24/1/19 25/1/19 36/1/19 33/1/19
f 23/1/20 24/1/20 33/1/20 34/1/20
f 28/1/21 29/1/21 38/1/21 37/1/21
f 10/1/22 2/1/22 40/1/22 39/1/22
f 2/1/23 12/1/23 41/1/23 40/1/23
f 12/1/24 15/1/24 42/1/24 41/1/24
f 15/1/25 10/1/25 39/1/25 42/1/25
f 46/1/26 45/1/26 44/1/26 43/1/26
f 42/1/27 39/1/27 46/1/27 43/1/27
f 40/1/28 41/1/28 44/1/28 45/1/28
f 39/1/29 40/1/29 45/1/29 46/1/29
f 49/1/30 51/1/30 50/1/30
f 48/1/31 15/1/31 50/1/31 51/1/31
f 47/1/32 48/1/32 51/1/32 49/1/32
f 20/1/14 8/1/14 53/1/14 52/1/14
f 8/1/14 18/1/14 54/1/14 53/1/14
f 18/1/14 22/1/14 55/1/14 54/1/14
f 22/1/14 20/1/14 52/1/14 55/1/14
f 57/1/14 56/1/14 59/1/14 58/1/14
f 52/1/33 53/1/33 56/1/33 57/1/33
f 54/1/34 55/1/34 58/1/34 59/1/34
f 55/1/35 52/1/35 57/1/35 58/1/35
f 13/1/36 64/1/36 63/1/36 6/1/36
f 5/1/37 62/1/37 64/1/37 13/1/37
f 62/1/38 65/1/38 68/1/38 64/1/38
f 64/1/39 68/1/39 66/1/39 63/1/39
f 68/1/40 67/1/40 61/1/40 66/1/40
f 65/1/41 69/1/41 60/1/41 67/1/41 68/1/41
f 60/1/42 70/1/42 11/1/42 47/1/42 95/1/42 15/1/42 67/1/42
f 91/1/43 44/1/43 43/1/43 92/1/43
f 5/1/44 16/1/44 71/1/44 65/1/44 62/1/44
f 76/1/45 85/1/45 84/1/45 73/1/45
f 63/1/46 66/1/46 17/1/46 6/1/46
f 66/1/47 61/1/47 12/1/47 17/1/47
f 75/1/48 86/1/48 85/1/48 76/1/48
f 16/1/14 21/1/14 72/1/14 71/1/14
f 98/1/49 101/1/49 104/1/49 99/1/49
f 72/1/14 73/1/14 74/1/14 69/1/14
f 69/1/14 74/1/14 75/1/14 60/1/14
f 60/1/14 75/1/14 76/1/14 70/1/14
f 70/1/14 76/1/14 73/1/14 72/1/14
f 21/1/14 77/1/14 78/1/14 72/1/14
f 72/1/14 78/1/14 79/1/14 70/1/14
f 70/1/14 79/1/14 80/1/14 11/1/14
f 11/1/14 80/1/14 77/1/14 21/1/14
f 84/1/14 85/1/14 86/1/14 83/1/14
f 81/1/14 82/1/14 88/1/14 87/1/14
f 79/1/50 88/1/50 82/1/50 80/1/50
f 80/1/51 82/1/51 81/1/51 77/1/51
f 77/1/52 81/1/52 87/1/52 78/1/52
f 74/1/53 83/1/53 86/1/53 75/1/53
f 73/1/54 84/1/54 83/1/54 74/1/54
f 78/1/55 87/1/55 88/1/55 79/1/55
f 67/1/56 89/1/56 90/1/56 61/1/56
f 61/1/57 90/1/57 91/1/57 12/1/57
f 12/1/58 91/1/58 92/1/58 15/1/58
f 15/1/59 92/1/59 89/1/59 67/1/59
f 94/1/60 43/1/60 44/1/60 93/1/60
f 92/1/61 43/1/61 94/1/61 89/1/61
f 90/1/62 93/1/62 44/1/62 91/1/62
f 89/1/63 94/1/63 93/1/63 90/1/63
f 49/1/64 50/1/64 96/1/64
f 95/1/65 96/1/65 50/1/65 15/1/65
f 47/1/66 49/1/66 96/1/66 95/1/66
f 71/1/14 97/1/14 98/1/14 65/1/14
f 65/1/14 98/1/14 99/1/14 69/1/14
f 69/1/14 99/1/14 100/1/14 72/1/14
f 72/1/14 100/1/14 97/1/14 71/1/14
f 102/1/14 103/1/14 104/1/14 101/1/14
f 97/1/67 102/1/67 101/1/67 98/1/67
f 99/1/68 104/1/68 103/1/68 100/1/68
f 100/1/69 103/1/69 102/1/69 97/1/69
